<svg width="14" height="15" viewBox="0 0 14 15" fill="none" xmlns="http://www.w3.org/2000/svg">
<path d="M12.7651 0.624023H0.745231C0.332857 0.624023 0 0.973849 0 1.40292V13.9657C0 14.3967 0.334707 14.7446 0.745231 14.7446H7.21561V9.28462H5.46071V7.14701H7.21561V5.57377C7.21561 3.74926 8.28075 2.75777 9.83779 2.75777C10.583 2.75777 11.2247 2.81575 11.4115 2.84087V4.74655H10.3371C9.49014 4.74655 9.32556 5.16789 9.32556 5.78443V7.14508H11.3504L11.086 9.28269H9.32556V14.7427H12.7614C13.1738 14.7427 13.5066 14.3948 13.5066 13.9638V1.40292C13.5103 0.971916 13.1756 0.624023 12.7651 0.624023Z" fill="white"/>
</svg>
