<svg width="14" height="15" viewBox="0 0 14 15" fill="none" xmlns="http://www.w3.org/2000/svg">
<path d="M13.8262 4.87507C13.7943 4.15085 13.6761 3.65248 13.5071 3.22131C13.3325 2.764 13.0659 2.35336 12.7149 2.01178C12.3713 1.66461 11.9564 1.39582 11.5002 1.22597C11.0628 1.05798 10.5653 0.940385 9.8369 0.908653C9.10286 0.873189 8.87007 0.865723 7.00775 0.865723C5.14543 0.865723 4.91264 0.873189 4.18047 0.90492C3.45207 0.936652 2.95081 1.05424 2.51715 1.22223C2.05532 1.39582 1.64419 1.66087 1.30064 2.00992C0.951453 2.3515 0.681112 2.764 0.510274 3.21758C0.341314 3.65248 0.223045 4.14712 0.19113 4.87134C0.155461 5.60116 0.147949 5.83261 0.147949 7.68423C0.147949 9.53585 0.155463 9.7673 0.187377 10.4953C0.219292 11.2195 0.337561 11.7178 0.506522 12.149C0.681114 12.6063 0.951451 13.017 1.29876 13.3585C1.64231 13.7057 2.0572 13.9745 2.5134 14.1444C2.95082 14.3123 3.44831 14.4299 4.17672 14.4617C4.90888 14.4934 5.14167 14.5009 7.00399 14.5009C8.86631 14.5009 9.0991 14.4934 9.83126 14.4617C10.5597 14.4299 11.0609 14.3123 11.4946 14.1444C12.4164 13.7897 13.1448 13.0655 13.5015 12.149C13.6704 11.7141 13.7887 11.2195 13.8206 10.4953C13.8525 9.7673 13.86 9.53585 13.86 7.68423C13.86 5.83261 13.8582 5.60116 13.8244 4.8732L13.8262 4.87507ZM12.5909 10.443C12.5609 11.1093 12.4483 11.4677 12.3544 11.7085C12.1235 12.3021 11.6504 12.7743 11.0515 13.0039C10.8112 13.0972 10.4452 13.2092 9.7787 13.2391C9.05592 13.2708 8.83815 13.2783 7.00775 13.2783C5.17734 13.2783 4.95769 13.2708 4.23679 13.2391C3.56658 13.2092 3.20613 13.0972 2.96396 13.0039C2.66734 12.8938 2.39513 12.722 2.17548 12.4943C1.94832 12.2741 1.77373 12.0072 1.66296 11.7104C1.5691 11.4715 1.45645 11.1075 1.42642 10.4449C1.3945 9.72623 1.38699 9.50971 1.38699 7.68983C1.38699 5.86994 1.3945 5.65156 1.42642 4.9348C1.45645 4.26844 1.5691 3.91007 1.66296 3.66928C1.77373 3.37437 1.94644 3.10372 2.17735 2.88533C2.39888 2.65948 2.66734 2.48589 2.96584 2.37576C3.20614 2.28243 3.57222 2.17044 4.23867 2.14058C4.96145 2.10884 5.17922 2.10138 7.00962 2.10138C8.84003 2.10138 9.05967 2.10884 9.78057 2.14058C10.4508 2.17044 10.8112 2.28243 11.0534 2.37576C11.35 2.48402 11.6222 2.65761 11.8419 2.88533C12.069 3.10558 12.2436 3.3725 12.3544 3.66928C12.4483 3.9082 12.5609 4.27218 12.5909 4.9348C12.6229 5.65342 12.6304 5.86994 12.6304 7.68983C12.6304 9.50971 12.6229 9.7225 12.5909 10.4411V10.443Z" fill="white"/>
<path d="M7.00594 4.18311C5.06102 4.18311 3.48218 5.75287 3.48218 7.68662C3.48218 9.62036 5.06102 11.1901 7.00594 11.1901C8.95086 11.1901 10.5297 9.62036 10.5297 7.68662C10.5297 5.75287 8.95086 4.18311 7.00594 4.18311ZM7.00594 9.95821C5.74437 9.95821 4.72122 8.94094 4.72122 7.68662C4.72122 6.4323 5.74437 5.41503 7.00594 5.41503C8.26751 5.41503 9.29066 6.4323 9.29066 7.68662C9.29066 8.94094 8.26751 9.95821 7.00594 9.95821Z" fill="white"/>
<path d="M11.4905 4.0446C11.4905 4.4963 11.1225 4.86215 10.6682 4.86215C10.2139 4.86215 9.84595 4.4963 9.84595 4.0446C9.84595 3.59289 10.2139 3.22705 10.6682 3.22705C11.1225 3.22705 11.4905 3.59289 11.4905 4.0446Z" fill="white"/>
</svg>
