<svg width="14" height="15" viewBox="0 0 14 15" fill="none" xmlns="http://www.w3.org/2000/svg">
<path d="M0.361572 14.4619C0.466703 14.0811 0.566201 13.719 0.6657 13.3569C0.872207 12.6065 1.08059 11.8562 1.28147 11.1058C1.30024 11.033 1.29273 10.9341 1.25706 10.8706C-0.584608 7.53511 0.707003 3.3391 4.11062 1.61068C7.8728 -0.2988 12.446 1.62188 13.685 5.63309C14.7795 9.17394 12.767 12.9649 9.20195 14.0512C7.43162 14.5907 5.71386 14.4208 4.05993 13.5939C3.9961 13.5622 3.90411 13.5529 3.83465 13.5715C2.72702 13.8552 1.62314 14.1446 0.51551 14.432C0.470454 14.4432 0.425402 14.4507 0.361572 14.4656V14.4619ZM1.98735 12.8697C2.66694 12.6924 3.31838 12.5244 3.96982 12.3508C4.08058 12.3209 4.16506 12.3359 4.26268 12.3937C5.51674 13.1422 6.8703 13.3886 8.30271 13.1049C11.3402 12.5039 13.3096 9.58271 12.737 6.55144C12.1682 3.53883 9.19632 1.52855 6.16254 2.10158C2.36844 2.81834 0.391605 7.02367 2.29898 10.3592C2.4961 10.7045 2.53741 10.9882 2.4135 11.3522C2.2483 11.8412 2.1319 12.3471 1.98735 12.8716V12.8697Z" fill="white"/>
<path d="M5.00817 4.50386C5.29541 4.43293 5.43621 4.60466 5.5357 4.86411C5.68965 5.25982 5.85673 5.64993 6.02569 6.04003C6.08388 6.17629 6.08013 6.29575 5.9919 6.41148C5.8586 6.5888 5.72906 6.76985 5.58826 6.94158C5.49252 7.0573 5.48314 7.15996 5.56011 7.28876C6.11393 8.2127 6.88551 8.88092 7.89364 9.28036C8.03256 9.33449 8.14145 9.31023 8.23532 9.1945C8.40052 8.98732 8.57136 8.78386 8.73656 8.57667C8.85671 8.42362 8.92805 8.38629 9.10077 8.46468C9.57949 8.6812 10.0545 8.90892 10.5238 9.14411C10.582 9.17397 10.6345 9.28036 10.6327 9.34943C10.6214 10.068 10.4093 10.4115 9.63956 10.7344C9.20214 10.9173 8.7497 10.8744 8.29914 10.7493C6.66586 10.2976 5.46061 9.27476 4.49754 7.92898C4.19904 7.51087 3.9287 7.0797 3.81418 6.572C3.64898 5.84218 3.8292 5.20942 4.36987 4.68119C4.54447 4.50946 4.75661 4.47587 5.01193 4.50386H5.00817Z" fill="white"/>
</svg>
