<svg width="18" height="13" viewBox="0 0 18 13" fill="none" xmlns="http://www.w3.org/2000/svg">
<path d="M17.0917 2.57976C16.8946 1.84807 16.3145 1.27317 15.5785 1.07532C14.2362 0.709473 8.8633 0.709473 8.8633 0.709473C8.8633 0.709473 3.49223 0.709473 2.14806 1.06038C1.42716 1.25637 0.833921 1.84807 0.634923 2.57789C0.281983 3.91247 0.281982 6.68243 0.281982 6.68243C0.281982 6.68243 0.281983 9.46546 0.634923 10.787C0.832044 11.5187 1.41214 12.0936 2.14806 12.2914C3.50537 12.6573 8.8633 12.6573 8.8633 12.6573C8.8633 12.6573 14.2344 12.6573 15.5785 12.3063C16.3145 12.1104 16.8927 11.5336 17.0917 10.8019C17.4446 9.46732 17.4446 6.69736 17.4446 6.69736C17.4446 6.69736 17.4596 3.91434 17.0917 2.57976ZM7.15304 9.24147V4.12526L11.6192 6.68243L7.15304 9.2396V9.24147Z" fill="white"/>
</svg>
