<?xml version="1.0" encoding="utf-8"?>
<!-- Generator: Adobe Illustrator 27.9.0, SVG Export Plug-In . SVG Version: 6.00 Build 0)  -->
<svg version="1.1" id="Layer_1" xmlns="http://www.w3.org/2000/svg" xmlns:xlink="http://www.w3.org/1999/xlink" x="0px" y="0px"
	 viewBox="0 0 572.5 498.29" style="enable-background:new 0 0 572.5 498.29;" xml:space="preserve">
<style type="text/css">
	.st0{fill:#FFFFFF;}
	.st1{fill:#E18134;}
	.st2{fill:#2A3C47;}
	.st3{opacity:0.1;}
	.st4{clip-path:url(#SVGID_00000160177473805635337000000004022700079963737217_);}
	.st5{fill:#E28234;}
	.st6{clip-path:url(#SVGID_00000114033125742062315100000014965694773378623407_);}
	.st7{fill:#0F222D;}
</style>
<g id="logo_VERT_00000118374918818424859530000010055032792879734685_">
	<g>
		<g>
			<g>
				<g>
					<path class="st1" d="M388.22,24.4c-2.38,3.49-15.41,20.37-50.09,20.37C299.6,44.77,272.63,0,272.63,0s-26.97,44.77-65.5,44.77
						c-34.68,0-47.71-16.88-50.09-20.37c1.46,4.95,9.17,30.82,5.5,56.88h220.17C379.05,55.22,386.75,29.36,388.22,24.4z"/>
				</g>
			</g>
			<g>
				<g>
					<g>
						<path class="st2" d="M337.56,196.77c-5.06,13.19-9.06,26.78-12.13,40.51c-6.25,27.72-10.25,55.97-11.85,84.35
							c0,0,25.98-89.95,110.73-173.23c-22.92,5.06-46.24,8.8-69.56,11.73C348.09,171.71,342.36,184.24,337.56,196.77z"/>
					</g>
				</g>
				<g>
					<g>
						<path class="st2" d="M307.05,154.58c40.1,0.87,78.26-6.06,117.26-10.39c-30.92-21.99-41.17-51.04-41.17-51.04
							C369.67,109.94,351.67,133.6,307.05,154.58z"/>
					</g>
				</g>
				<g>
					<g>
						<path class="st2" d="M329.1,195.19c3.88-11.45,8.46-22.9,13.92-34.18c-23.25,2.82-46.69,3.17-70.47,3.52
							c-23.79-0.35-47.22-0.71-70.47-3.52c5.46,11.28,10.04,22.73,13.92,34.18c4.93,13.39,8.28,27.31,10.74,41.58
							c5.28,28.01,8.28,56.38,8.81,84.92c0,0,22.9-60.96,37-74.52c14.1,13.56,37,74.52,37,74.52c0.52-28.54,3.53-56.91,8.81-84.92
							C320.83,222.5,324.17,208.58,329.1,195.19z"/>
					</g>
				</g>
				<g>
					<g>
						<path class="st2" d="M207.54,196.77c-4.8-12.53-10.53-25.05-17.19-36.64c-23.32-2.93-46.64-6.66-69.56-11.73
							c84.75,83.28,110.73,173.23,110.73,173.23c-1.6-28.38-5.6-56.63-11.85-84.35C216.6,223.55,212.6,209.96,207.54,196.77z"/>
					</g>
				</g>
				<g>
					<g>
						<path class="st2" d="M161.97,93.15c0,0-10.25,29.05-41.17,51.04c39,4.33,77.16,11.27,117.26,10.39
							C193.43,133.6,175.43,109.94,161.97,93.15z"/>
					</g>
				</g>
				<g>
					<g>
						<path class="st2" d="M272.55,152.2c50.04,0,98.83-54.62,106.41-62.19H166.14C173.72,97.58,222.51,152.2,272.55,152.2z"/>
					</g>
				</g>
			</g>
		</g>
		<g>
			<g>
				<path class="st1" d="M87.3,413.9c-0.46-5.03-2.24-9.82-5.33-14.39c-3.09-4.57-7.63-8.56-13.63-11.97l-25.88-14.81
					c-2.12-1.2-4.15-2.35-6.09-3.46c-1.94-1.11-3.48-2.4-4.64-3.87c-1.15-1.47-1.64-3.32-1.45-5.53c0.28-3.41,2.08-6.2,5.4-8.37
					c3.32-2.17,7.79-3.25,13.42-3.25c6.83,0,12.2,1.57,16.12,4.7c3.92,3.14,5.88,7.24,5.88,12.32h1.38l2.6-19.65h0.03l0.07-0.72
					l0.07-0.52c-0.01,0-0.01,0-0.02-0.01l0.16-1.65H63.92c-1.2-0.11-2.43-0.23-3.74-0.35c-3.69-0.32-7.24-0.58-10.65-0.76
					c-3.41-0.18-6.14-0.28-8.16-0.28c-6.36,0-11.85,0.99-16.47,2.98c-4.61,1.98-8.23,4.82-10.86,8.51
					c-2.63,3.69-4.27,8.12-4.91,13.28c-0.74,6.46,0.35,12.11,3.25,16.95c2.91,4.84,7.45,9.11,13.63,12.8l22.55,13.28
					c4.7,2.58,8.16,5.53,10.38,8.86c2.21,3.32,3.34,6.67,3.39,10.03c0.05,3.37-0.88,6.46-2.77,9.27c-1.89,2.82-4.64,5.1-8.23,6.85
					c-3.6,1.75-7.94,2.63-13.01,2.63c-6.18,0-11.81-1.32-16.88-3.94c-5.07-2.63-9.18-6.2-12.32-10.72
					c-3.14-4.52-4.84-9.62-5.12-15.29c-0.28-5.67,1.25-11.55,4.57-17.64l-1.25-0.97c-3.51,4.89-5.74,9.96-6.71,15.22
					s-0.79,10.33,0.55,15.22c1.34,4.89,3.78,9.27,7.33,13.14c3.55,3.87,8.09,6.96,13.63,9.27c5.53,2.3,11.99,3.46,19.37,3.46
					c7.47,0,14.14-1.15,19.99-3.46c5.86-2.31,10.79-5.42,14.81-9.34c4.01-3.92,6.96-8.28,8.86-13.08
					C87.04,423.84,87.76,418.93,87.3,413.9z"/>
				<path class="st1" d="M251.06,368.58c-2.08-3.41-5.42-6.18-10.03-8.3c-4.61-2.12-10.93-3.18-18.96-3.18h-10.65h-1.38H184.3h-8.72
					v1.38c0.18,0,0.44,0,0.76,0c0.32,0,0.57,0,0.76,0c1.94,0,3.62,0.67,5.05,2.01c1.43,1.34,2.15,3.07,2.15,5.19v65.86
					c0,2.03-0.69,3.74-2.08,5.12c-1.01,1.01-2.17,1.65-3.47,1.92c-1.33-0.22-2.71-0.69-4.14-1.43c-1.72-0.9-3.18-2.35-4.37-4.35
					l-39.64-80.68h-1.11c-0.09,1.02-0.46,2.35-1.11,4.01c-0.65,1.66-1.36,3.44-2.15,5.33c-0.79,1.89-1.55,3.65-2.28,5.26
					c-0.74,1.62-1.29,2.88-1.66,3.81l-28.52,61.47c-1.18,2.42-2.74,4.14-4.69,5.16c-2.03,1.06-3.97,1.59-5.81,1.59h-1.11v1.38h28.5
					v-1.38h-0.97c-1.57,0-3-0.6-4.29-1.8c-1.29-1.2-1.43-2.95-0.41-5.26h-0.09l4-9.13h25.78l4,9.13h-0.07
					c1.01,2.31,0.88,4.06-0.41,5.26c-1.29,1.2-2.72,1.8-4.29,1.8h-1.11v1.38h42.89h5.81h2.77h0.14h26.84h0.14H220l0.14-1.38
					c-0.19,0-0.44,0-0.76,0c-0.32,0-0.58,0-0.76,0c-2.12,0-3.83-0.69-5.12-2.08c-1.29-1.38-1.98-3.09-2.08-5.12v-68.22h1.66
					c4.06,0,7.22,1.41,9.48,4.22c2.26,2.81,3.53,6.57,3.8,11.28c0.09,0.92,0.07,2.03-0.07,3.32c-0.14,1.29-0.35,2.58-0.62,3.88
					c-0.46,2.58-1.13,4.7-2.01,6.36c-0.88,1.66-1.8,3-2.77,4.01c-0.97,1.02-1.89,1.78-2.77,2.28c-0.88,0.51-1.87,0.95-2.97,1.31
					v1.11c4.43,3.51,9.02,5.44,13.77,5.81c4.75,0.37,9.13-0.57,13.14-2.84c4.01-2.26,7.2-5.51,9.55-9.76
					c2.35-4.24,3.34-9.18,2.97-14.81C254.31,375.64,253.14,372,251.06,368.58z M111.64,416.32l10.16-23.23l10.17,23.23H111.64z"/>
				<path class="st1" d="M346.33,357.1H319.9h-0.28h-8.72v1.38h1.38c2.03,0,3.74,0.67,5.12,2.01c1.38,1.34,2.12,3.07,2.21,5.19
					v29.61h-26.98v-29.61c0.09-2.12,0.83-3.85,2.21-5.19c1.38-1.34,3.09-2.01,5.12-2.01h1.38v-1.38h-8.72h-0.28h-26.43h-0.41h-8.72
					v1.38c0.92,0,1.43,0,1.52,0c1.94,0,3.62,0.67,5.05,2.01c1.43,1.34,2.15,3.07,2.15,5.19v65.86c0,2.03-0.72,3.74-2.15,5.12
					c-1.43,1.38-3.11,2.08-5.05,2.08c-0.09,0-0.6,0-1.52,0v1.38h8.72h0.41h26.43h0.28h8.72v-1.38h-1.38c-2.03,0-3.74-0.69-5.12-2.08
					s-2.12-3.09-2.21-5.12v-29.89h26.98v29.89c-0.09,2.03-0.83,3.74-2.21,5.12c-1.38,1.38-3.09,2.08-5.12,2.08h-1.38v1.38h8.72h0.28
					h26.29h0.41h8.72v-1.38h-1.52c-2.03,0-3.74-0.69-5.12-2.08s-2.08-3.09-2.08-5.12v-65.86h0.14c0-2.12,0.69-3.85,2.08-5.19
					c1.38-1.34,3.09-2.01,5.12-2.01h1.52v-1.38h-8.86H346.33z"/>
				<path class="st1" d="M394.9,436.66c-1.38-1.38-2.12-3.09-2.21-5.12v-65.86c0.09-2.12,0.83-3.85,2.21-5.19
					c1.38-1.34,3.04-2.01,4.98-2.01c0.09,0,0.55,0,1.38,0v-1.38h-8.58h-0.28h-26.43h-0.42h-8.58v1.38c0.92,0,1.43,0,1.52,0
					c1.84,0,3.48,0.67,4.91,2.01c1.43,1.34,2.14,3.07,2.14,5.19v65.86c0,2.03-0.72,3.74-2.14,5.12c-1.43,1.38-3.07,2.08-4.91,2.08
					c-0.09,0-0.6,0-1.52,0v1.38h8.58h0.42h26.43h0.28h8.72v-1.38c-0.09,0-0.6,0-1.52,0C397.94,438.74,396.28,438.04,394.9,436.66z"
					/>
				<path class="st1" d="M567.58,411.06c-1.11,4.8-2.91,8.88-5.4,12.25c-2.49,3.37-5.38,5.95-8.65,7.75
					c-3.28,1.8-6.71,2.7-10.31,2.7h-13.28v-31.27h10.65c4.06,0.09,7.35,1.45,9.89,4.08c2.54,2.63,3.8,5.97,3.8,10.03v0.55h1.38
					v-14.67v-0.28v-5.95v-0.28v-14.53h-1.38v0.28c0,4.06-1.27,7.43-3.8,10.1c-2.54,2.68-5.84,4.06-9.89,4.15h-10.65v-32.52h14.25
					c5.26,0.09,9.27,1.62,12.04,4.57c2.77,2.95,4.15,7.11,4.15,12.45v0.69h1.38v-17.71v-0.28v-4.84v-1.25v-2.08
					c-1.02,0.37-2.93,0.81-5.74,1.31c-2.82,0.51-5.47,0.76-7.96,0.76h-18.13h-0.28H503.1h-0.28h-8.72v1.38c0.92,0,1.43,0,1.52,0
					c1.94,0,3.62,0.69,5.05,2.08c1.43,1.38,2.15,3.14,2.15,5.26v65.73c0,2.03-0.72,3.74-2.15,5.12c-0.76,0.73-1.59,1.26-2.48,1.61
					c-0.03-0.01-0.05-0.01-0.08-0.02c-1.2-0.32-2.44-1.11-3.74-2.35c-1.29-1.25-2.82-3.2-4.57-5.88c-1.38-2.21-2.63-4.29-3.74-6.23
					c-1.11-1.94-2.05-3.71-2.84-5.33c-0.78-1.61-1.5-2.97-2.15-4.08c-1.2-2.12-3.14-4.47-5.81-7.06c-2.68-2.58-5.77-4.34-9.27-5.26
					c4.8-0.83,8.46-2.47,11-4.91c2.54-2.44,4.29-5.23,5.26-8.37c0.97-3.13,1.45-6.09,1.45-8.86c0-4.89-0.97-8.83-2.91-11.83
					c-1.94-3-4.47-5.28-7.61-6.85c-3.14-1.57-6.55-2.65-10.24-3.25c-3.69-0.6-7.29-0.9-10.79-0.9h-11.76h-1.11h-25.88h-0.28h-8.58
					v1.38c0.18,0,0.42,0,0.69,0s0.6,0,0.97,0c1.84,0,3.46,0.67,4.84,2.01c1.38,1.34,2.08,3.07,2.08,5.19v65.86
					c0,2.03-0.72,3.74-2.14,5.12c-1.43,1.38-3.07,2.08-4.91,2.08c-0.37,0-0.67,0-0.9,0c-0.23,0-0.44,0-0.62,0v1.38h8.58h0.28h26.84
					h0.14H449v-1.38c-0.28,0-0.69,0-1.24,0c-1.57,0-3.18-0.6-4.84-1.8c-1.66-1.2-2.49-3-2.49-5.4v-67.8c1.2,0,1.92,0,2.14,0
					c0.23,0,0.44,0,0.62,0c0.18,0,0.88,0.07,2.08,0.21c1.2,0.14,2.56,0.62,4.08,1.45c1.52,0.83,2.88,2.28,4.08,4.36
					c1.2,2.08,1.89,5.1,2.08,9.06c0.09,1.2,0.09,2.17,0,2.91c-0.09,0.74-0.14,1.25-0.14,1.52c-0.37,3.87-1.11,6.9-2.21,9.06
					c-1.11,2.17-2.4,3.71-3.87,4.64c-1.48,0.92-2.95,1.38-4.43,1.38c-0.19,0-0.32,0-0.41,0c-0.09,0-0.19,0-0.28,0v1.11
					c0.37,0.09,1.06,0.62,2.08,1.59c1.01,0.97,1.84,3.07,2.49,6.3c0.37,1.66,0.71,3.27,1.04,4.84c0.32,1.57,0.71,3.09,1.18,4.57
					c0.46,1.48,1.04,2.97,1.73,4.5s1.54,3.16,2.56,4.91c2.67,4.52,5.42,7.77,8.23,9.76c2.81,1.98,6.02,3.18,9.62,3.6
					c3.6,0.41,7.84,0.62,12.73,0.62h8.3h8.02h0.69h0.28h26.57h0.28h9.27h25.46h0.28l3.88-29.06H567.58z"/>
			</g>
			<g>
				<path class="st2" d="M451.9,458.78c-3.17-1.73-6.87-2.64-11.09-2.72c-2.64-0.08-5.07-0.14-7.27-0.18
					c-2.21-0.04-4.24-0.04-6.09,0c-3.35,0.04-6.17,0.31-8.46,0.8c-2.29,0.49-4.15,1.36-5.59,2.6c-1.44,1.24-2.55,3.05-3.34,5.41
					l0.65,0.24c0.55-0.98,1.17-1.92,1.86-2.81c0.69-0.89,1.65-1.67,2.87-2.34c1.22-0.67,2.85-1.18,4.88-1.54
					c1.39-0.24,3.07-0.38,5-0.42v35.3c0,1.03-0.38,1.9-1.12,2.63c-0.75,0.73-1.64,1.09-2.66,1.09h-0.71l-0.06,0.59h4.55h0.18h2.01
					h1.66h11.65c4.22,0,7.91-0.87,11.09-2.6c3.17-1.73,5.66-4.15,7.45-7.24c1.79-3.09,2.69-6.71,2.69-10.85
					c0-4.14-0.9-7.74-2.69-10.79C457.56,462.92,455.07,460.52,451.9,458.78z M455.51,486.7c-1.4,2.84-3.36,5.05-5.88,6.62
					c-2.52,1.58-5.46,2.37-8.81,2.37c-1.77,0-3.32,0-4.64,0c-1.32,0-2.64,0-3.96,0c-0.9,0-1.92,0-3.05,0v-37.85c0.24,0,0.5,0,0.8,0
					c0.93,0,2,0,3.22,0c1.22,0,2.41,0.01,3.58,0.03c1.16,0.02,2.51,0.03,4.05,0.03c3.39,0,6.34,0.79,8.84,2.37
					c2.5,1.58,4.45,3.77,5.85,6.59c1.4,2.82,2.1,6.12,2.1,9.9C457.61,480.55,456.91,483.86,455.51,486.7z"/>
				<path class="st2" d="M491.14,492.4c-0.75,1.01-1.73,1.79-2.93,2.37c-1.2,0.57-2.79,0.86-4.76,0.86h-8.99v-15.02h10.05
					c0.83,0,1.44,0.25,1.83,0.74c0.39,0.49,0.59,1.07,0.59,1.74v0.77h0.65v-3.25v-0.12v-1.54v-0.12v-3.25h-0.65v0.77
					c0,0.67-0.2,1.25-0.59,1.74c-0.39,0.49-1.01,0.74-1.83,0.74h-10.05v-15.02h12.24c0.91,0,1.63,0.3,2.16,0.89
					c0.53,0.59,0.8,1.3,0.8,2.13v0.89h0.65v-3.9v-0.18v-1.06v-0.59v-0.95c-0.51,0.2-1.46,0.4-2.84,0.62
					c-1.38,0.22-2.68,0.32-3.9,0.32h-9.11h-0.12h-2.78h-0.89h-4.26v0.59h0.83c0.98,0,1.79,0.3,2.42,0.89c0.63,0.59,0.97,1.34,1,2.25
					v27.97c-0.04,0.87-0.37,1.62-1,2.25c-0.63,0.63-1.44,0.95-2.42,0.95h-0.83v0.59h4.26h0.89h2.78h0.12h6.98h8.81h0.18l3.25-8.46
					h-0.59C492.53,490.26,491.88,491.4,491.14,492.4z"/>
				<path class="st2" d="M533.83,461.98h-2.31h-0.12h-4.32v0.59h1c0.91,0,1.67,0.3,2.31,0.89c0.63,0.59,0.97,1.32,1,2.19v24.42
					l-30.75-28.97h-0.59c0.35,2.92,0.53,5.38,0.53,7.39v25.31c0,0.87-0.32,1.6-0.95,2.19c-0.63,0.59-1.4,0.89-2.31,0.89h-1.01v0.59
					h4.26h0.18h2.31h0.18h4.26v-0.59h-1.01c-0.87,0-1.63-0.3-2.28-0.89c-0.65-0.59-0.98-1.32-0.98-2.19h-0.01l-0.04-24.69
					l30.8,29.19h0.53c-0.2-1.46-0.34-2.77-0.41-3.93c-0.08-1.16-0.12-2.37-0.12-3.64v-25.07c0-0.87,0.32-1.6,0.97-2.19
					c0.65-0.59,1.41-0.89,2.28-0.89h1v-0.59h-4.26H533.83z"/>
				<path class="st2" d="M570.85,461.39c-0.75,0.16-1.57,0.29-2.45,0.38c-0.89,0.1-1.72,0.15-2.51,0.15h-19.22
					c-0.79,0-1.64-0.05-2.54-0.15c-0.91-0.1-1.73-0.23-2.45-0.38c-0.73-0.16-1.27-0.29-1.63-0.41v0.95v0.59v1.06v0.12v3.96h0.65
					v-0.95c0-0.83,0.27-1.53,0.8-2.1c0.53-0.57,1.25-0.88,2.16-0.92h10.7v29.98c-0.04,0.87-0.39,1.62-1.06,2.25
					c-0.67,0.63-1.48,0.95-2.42,0.95c-0.43,0-0.67,0-0.71,0v0.59h4.2h0.12h3.55h0.18h4.14v-0.59h-0.65c-0.95,0-1.75-0.32-2.42-0.95
					c-0.67-0.63-1.03-1.38-1.06-2.25v-29.98h10.7c0.91,0.04,1.63,0.35,2.16,0.92c0.53,0.57,0.8,1.27,0.8,2.1v0.95h0.65v-3.96v-0.12
					v-1.06v-0.59v-0.95C572.15,461.09,571.6,461.23,570.85,461.39z"/>
			</g>
		</g>
	</g>
</g>
</svg>
