<svg width="40" height="43" viewBox="0 0 40 43" fill="none" xmlns="http://www.w3.org/2000/svg">
<g clip-path="url(#clip0_47_30)">
<path d="M35.24 3.22C34.93 3.68 33.21 5.9 28.64 5.9C23.56 5.9 20.01 0 20.01 0C20.01 0 16.46 5.9 11.38 5.9C6.81003 5.9 5.09003 3.68 4.78003 3.22C4.97003 3.87 5.99003 7.28 5.51003 10.72H34.53C34.03 7.28 35.05 3.87 35.24 3.22Z" fill="#E28234"/>
<path d="M28.57 25.93C27.9 27.67 27.38 29.46 26.97 31.27C26.15 34.92 25.62 38.65 25.41 42.39C25.41 42.39 28.83 30.54 40 19.56C36.98 20.23 33.91 20.72 30.83 21.11C29.96 22.63 29.2 24.28 28.57 25.93Z" fill="#2A3C47"/>
<path d="M24.55 20.37C29.83 20.49 34.86 19.57 40 19C35.93 16.1 34.57 12.27 34.57 12.27C32.8 14.49 30.43 17.61 24.55 20.37Z" fill="#2A3C47"/>
<path d="M27.45 25.72C27.96 24.21 28.56 22.7 29.28 21.22C26.22 21.59 23.13 21.64 19.99 21.68C16.86 21.63 13.77 21.59 10.7 21.22C11.42 22.71 12.02 24.22 12.53 25.72C13.18 27.48 13.62 29.32 13.95 31.2C14.65 34.89 15.04 38.63 15.11 42.39C15.11 42.39 18.13 34.36 19.99 32.57C21.85 34.36 24.87 42.39 24.87 42.39C24.94 38.63 25.33 34.89 26.03 31.2C26.36 29.32 26.8 27.49 27.45 25.72Z" fill="#2A3C47"/>
<path d="M11.43 25.93C10.8 24.28 10.04 22.63 9.16 21.1C6.09 20.72 3.02 20.22 0 19.56C11.17 30.54 14.59 42.39 14.59 42.39C14.38 38.65 13.85 34.93 13.03 31.27C12.63 29.46 12.1 27.67 11.43 25.93Z" fill="#2A3C47"/>
<path d="M5.43 12.28C5.43 12.28 4.08 16.11 0 19.01C5.14 19.58 10.17 20.49 15.45 20.38C9.57 17.61 7.2 14.49 5.43 12.28Z" fill="#2A3C47"/>
<path d="M20 20.06C26.59 20.06 33.03 12.86 34.02 11.86H5.97998C6.96998 12.86 13.41 20.06 20 20.06Z" fill="#2A3C47"/>
</g>
</svg>
