<svg width="484" height="485" viewBox="0 0 484 485" fill="none" xmlns="http://www.w3.org/2000/svg">
<path d="M134.8 252.21H154.07V233H172.86V194.45H154.71V212.35H116.29V194.12H134.12V174.57H116.17V155.7H211.7V173.88H193.9V213.33H251.31L251.01 213.01V233H193.54V252.07H231.1V271.92H212.94V290.28H251.46V271.61H270.68L270.38 271.31V291.04H290.05L289.75 290.74V310.47L290.05 310.17H251.01V349.34L251.31 349.04H231.36V310.84H212.31V349.47H173.53V368.77L173.83 368.45H155.01V330.13H192.21V290.71H154.17L154.47 291.03V271.59H134.79C134.9 265.01 135 258.44 135.11 251.86L134.81 252.18L134.8 252.21Z" fill="white"/>
<path d="M425.3 368.53V407.04H406.8V446.55H425.62L425.32 446.23V465.96L425.62 465.64H348.46V446.21H328.48L328.77 446.53C328.66 439.96 328.55 433.39 328.44 426.83C334.71 426.83 340.99 426.83 347.28 426.83V408.28H328.74V427.14H290.71V407.13H308.55V368.5H289.72L290.02 368.8V348.7H308.67V329.54H290.02V310.2L289.72 310.5H309.39V290.77L309.09 291.07H328.76L328.44 290.77V310.04H424.79V329.45H406.87V368.84H425.57L425.26 368.53H425.3ZM329.16 387.37H385.93V330.31H329.16V387.37ZM385.95 445.97V408.04H367.99V445.97H385.95Z" fill="white"/>
<path d="M270.41 116.19H289.68V154.5H347.49V193.93H367.5L367.2 193.62V212.89H348.61V232.32H424.64V251.72H406.23V290.38H387.22V271.66C379.85 271.66 373.56 271.66 367.26 271.66C367.26 265.37 367.26 259.07 367.26 252.75H348.77V271.35H367.56V290.77C354.01 290.77 341.24 290.77 328.47 290.77L328.79 291.07V272.22H309.12V291.07L309.42 290.77H289.75L290.05 291.07V271.34H270.38L270.68 271.64V213.04L270.38 213.34H290.39V232.07H327.99V193.37H308.66V174.92H289.61V193.6H270.37L270.69 193.9C270.69 167.9 270.7 141.9 270.71 115.89L270.4 116.2L270.41 116.19Z" fill="white"/>
<path d="M76.67 310.2V329.09H38.46V272.33H18.98V329.19H0.2V252.37H18.29V233.2H37.36V213.7C31.48 213.37 25.59 213.05 18.96 212.68V174.7H0V155.41H95.41V193.09H77.15V175.11H38.77V193.43H57V212.96H76.47V232.11H96.04V252.2L96.35 251.9H76.68V291.07L76.98 290.77H58.2V310.5H76.98L76.66 310.2H76.67Z" fill="white"/>
<path d="M134.49 0V134.68H0.139893V0H134.5H134.49ZM115.25 19.68H19.3899V115.38H115.25V19.68Z" fill="white"/>
<path d="M483.14 0.220215V134.84H348.99V0.220215H483.14ZM368.02 115.28H463.49V19.4002H368.02V115.28Z" fill="white"/>
<path d="M134.19 484.75H0.0600586V350.11H134.19V484.75ZM114.87 465.36V369.57H19.4701V465.36H114.87Z" fill="white"/>
<path d="M270.71 115.89H251.4V154.3H232.28V76.99H212.27L212.56 77.31V58.46H192.89V77.31L193.18 76.99H155V58.09H172.85V38.54H154.88V19.37H173.4V0H192.54V37.56H212V19.69H270.35C270.35 25.78 270.35 32.11 270.35 38.43L270.67 38.13H232.61V58.1H251.38V96.74H270.67L270.35 96.44C270.37 103.03 270.38 109.61 270.4 116.2L270.71 115.89Z" fill="white"/>
<path d="M328.49 446.21V484.53H309.66V466.63H251.42V484.67H232.31V466.52H212.83V484.41H193.23V407.37L192.91 407.67H212.8V426.79C219.91 426.79 225.93 426.79 231.94 426.79C231.94 433.1 231.94 439.41 231.94 445.65H251.02V426.79H270.98V446.54H328.79L328.5 446.22L328.49 446.21Z" fill="white"/>
<path d="M193.22 407.37H173.97V484.62H154.83V388.58H173.83C173.83 381.16 173.83 374.82 173.83 368.49L173.53 368.81H251.31V349.08L251.01 349.38H270.9V368.81H290.05L289.75 368.51V388.45H192.91V407.68L193.23 407.38L193.22 407.37Z" fill="white"/>
<path d="M425.61 368.84V349.47H463.62V310.89H445.03V290.79L444.72 291.1H482.85V368.54C463.65 368.54 444.47 368.54 425.29 368.54L425.59 368.85L425.61 368.84Z" fill="white"/>
<path d="M289.72 38.1599V57.4899H328.06V76.6299H309.07V96.7099L309.38 96.3999C296.37 96.4099 283.37 96.4199 270.36 96.4299L270.68 96.7299C270.68 77.1999 270.68 57.6599 270.68 38.1299L270.36 38.4299C276.91 38.4399 283.47 38.4599 290.02 38.4699L289.72 38.1599Z" fill="white"/>
<path d="M367.5 193.94V155.71H386.37V174.5H406.24L405.93 174.19V212.37H387.07V193.62C379.76 193.62 373.47 193.62 367.19 193.62L367.49 193.93L367.5 193.94Z" fill="white"/>
<path d="M464.05 446.24V465.58H483.01V484.43H425.62C425.62 478.31 425.62 471.98 425.62 465.65L425.32 465.97H444.99V446.24L444.69 446.54H464.36L464.04 446.24H464.05Z" fill="white"/>
<path d="M134.78 310.2V329.04H96.5599V310.2C89.2299 310.2 82.9499 310.2 76.6699 310.2L76.9899 310.5V290.77L76.6899 291.07C89.6999 290.96 102.71 290.86 115.72 290.75C115.72 297.09 115.72 303.42 115.72 310.5H135.09L134.77 310.2H134.78Z" fill="white"/>
<path d="M290.02 38.4702V0.160156H308.75C309.07 6.06016 309.39 11.9602 309.75 18.5702H327.84V38.1602C315.22 38.1602 302.46 38.1602 289.71 38.1602L290.01 38.4702H290.02Z" fill="white"/>
<path d="M445.01 427.09V408.24H482.87V446.23C476.59 446.23 470.32 446.23 464.05 446.23L464.37 446.53V426.8H444.7L445.02 427.1L445.01 427.09Z" fill="white"/>
<path d="M212.28 76.98V134.67H193.2C193.2 115.48 193.2 96.23 193.2 76.98L192.91 77.3H212.58L212.29 76.98H212.28Z" fill="white"/>
<path d="M154.92 97.1001H172.9V134.73H154.92V97.1001Z" fill="white"/>
<path d="M309.08 96.7099H327.9V134.73H309.39C309.39 121.91 309.39 109.15 309.39 96.3999L309.08 96.7099Z" fill="white"/>
<path d="M483.2 233.44V251.41H445.4V233.44H483.2Z" fill="white"/>
<path d="M445.03 290.79H426.24V272.19H444.73C444.73 278.51 444.73 284.8 444.73 291.1L445.04 290.79H445.03Z" fill="white"/>
<path d="M154.17 290.75V310.2C147.42 310.2 141.1 310.2 134.78 310.2L135.1 310.5C135 303.92 134.9 297.33 134.8 290.75C141.35 290.86 147.91 290.96 154.46 291.07L154.16 290.75H154.17Z" fill="white"/>
<path d="M251.3 213.35V193.9C258.05 193.9 264.37 193.9 270.69 193.9L270.37 193.6V213.33L270.67 213.03C264.11 213.03 257.56 213.03 251 213.03L251.3 213.35Z" fill="white"/>
<path d="M464.1 174.49H482.84V193.04H464.41V174.18L464.1 174.49Z" fill="white"/>
<path d="M464.4 174.19H445.61V155.59H464.1C464.1 161.91 464.1 168.2 464.1 174.5L464.41 174.19H464.4Z" fill="white"/>
<path d="M96.04 252.2C102.6 252.2 109.16 252.21 115.72 252.22L115.42 251.9C115.53 258.48 115.63 265.05 115.74 271.63C109.42 271.63 103.1 271.63 96.36 271.63V251.9L96.05 252.2H96.04Z" fill="white"/>
<path d="M406.24 174.5V155.64H424.78V174.19C418.48 174.19 412.21 174.19 405.94 174.19L406.24 174.5Z" fill="white"/>
<path d="M425.62 446.55V427.1C432.37 427.1 438.69 427.1 445.01 427.1L444.69 426.8V446.53L444.99 446.23H425.32L425.62 446.55Z" fill="white"/>
<path d="M425.97 212.6V194.53H444.17V212.6H425.97Z" fill="white"/>
<path d="M115.72 252.21V233.35H134.8C134.8 239.59 134.8 245.9 134.8 252.21L135.1 251.89H115.43L115.73 252.21H115.72Z" fill="white"/>
<path d="M135.1 291.07H115.43C115.43 284.49 115.43 277.91 115.43 271.34H135.1V291.07Z" fill="white"/>
<path d="M251.31 427.1H231.64V408.25H251.31V427.1Z" fill="white"/>
<path d="M348.49 368.06V349.99H366.69V368.06H348.49Z" fill="white"/>
<path d="M95.5999 96.0702H38.8999V38.9902H95.5999V96.0702Z" fill="white"/>
<path d="M443.95 96.3498H387.56V39.0098H443.95V96.3498Z" fill="white"/>
<path d="M95.7001 388.69V445.58H38.8101V388.69H95.7001Z" fill="white"/>
</svg>
